<svg width="48" height="48" viewBox="0 0 48 48" fill="none" xmlns="http://www.w3.org/2000/svg">
<g clip-path="url(#clip0_2225_2043)">
<path d="M39.94 12.86L24 4L8.06 12.86L18.2 18.48C19.66 16.96 21.72 16 24 16C26.28 16 28.34 16.96 29.8 18.48L39.94 12.86ZM20 24C20 21.8 21.8 20 24 20C26.2 20 28 21.8 28 24C28 26.2 26.2 28 24 28C21.8 28 20 26.2 20 24ZM22 42.88L6 34V16.28L16.26 21.98C16.08 22.62 16 23.3 16 24C16 27.72 18.54 30.86 22 31.74V42.88ZM26 42.88V31.74C29.46 30.86 32 27.72 32 24C32 23.3 31.92 22.62 31.74 21.98L42 16.28V34L26 42.88Z" fill="#4BB543"/>
</g>
<defs>
<clipPath id="clip0_2225_2043">
<rect width="48" height="48" fill="white"/>
</clipPath>
</defs>
</svg>
