<svg width="24" height="24" viewBox="0 0 24 24" fill="none" xmlns="http://www.w3.org/2000/svg">
<path d="M13 2L2 4V20L13 22H14V2H13ZM15 5V8H19V11H20.5L18.5 13L16.5 11H18V9H15V12.5L17.5 15L15 17.5V19H22V5H15ZM7.53125 7.90625C9.98828 7.6875 10.2812 9.50391 10.2812 10.4688C10.2812 11.4336 9.60938 13.3594 7.40625 13.2188L6.59375 13.1875L6.625 15.9375L5 15.75V8.21875L7.53125 7.90625ZM7.21875 9.34375L6.5625 9.375L6.59375 11.8438H7.25C8.19531 11.8398 8.69531 11.4141 8.6875 10.5312C8.67969 9.66797 8.16406 9.27344 7.21875 9.34375Z" fill="#4BB543"/>
</svg>
